<?xml version="1.0" encoding="utf-8"?>
<!-- Generator: Adobe Illustrator 22.0.0, SVG Export Plug-In . SVG Version: 6.00 Build 0)  -->
<svg version="1.1" id="Layer_1" xmlns="http://www.w3.org/2000/svg" xmlns:xlink="http://www.w3.org/1999/xlink" x="0px" y="0px"
	 viewBox="0 0 10.5 10.5" style="enable-background:new 0 0 10.5 10.5;" xml:space="preserve">
<style type="text/css">
	.st0{fill:#F9E0AF;}
	.st1{fill:#00BEEA;}
	.st2{fill:#00AFD8;}
	.st3{fill:#008BB4;}
	.st4{fill:#FFFFFF;}
</style>
<path class="st4" d="M9.8,5.6c0.1-1.1-0.5-2.2-1.5-2.7l0,0c-0.7-0.4-1.5-0.3-2,0.2l0,0c0,0,0,0,0,0c0,0,0,0,0,0l0,0c0,0,0,0-0.1,0.1
	L6,3.3l0,0C5.8,3.6,5.7,4.1,5.9,4.5l0.1,0.2l0-0.2c0-0.2,0.1-0.3,0.3-0.4C6.4,4,6.6,4,6.7,4c0.2,0,0.3,0.1,0.4,0.3
	C7.2,4.6,7.2,4.8,7,5C6.7,5.3,6.3,5.3,5.9,5.2C5.3,4.9,5,4.2,5,3.6C5.1,2.4,6,1.5,7.1,1.2l0.2,0L7.1,1.1C6.5,0.8,5.9,0.7,5.2,0.7
	c-2.5,0-4.5,2-4.5,4.5c0,2.5,2,4.5,4.5,4.5c2.2,0,4.2-1.7,4.5-3.9l0,0c0,0,0-0.1,0-0.1L9.8,5.6L9.8,5.6z M8.2,3
	C8.2,3.1,8.2,3.1,8.2,3c0,0.1,0.1,0.1,0.1,0.1c0,0,0,0.1,0,0.1c0,0,0,0.1,0,0.1c0,0,0,0.1,0,0.1c0,0,0,0.1,0,0.1c0,0,0,0.1,0,0.1
	c0,0,0,0.1,0,0.1c0,0,0,0.1,0,0.1c0,0,0,0.1,0,0.1c0,0,0,0.1,0,0.1c0,0,0,0,0,0.1c0,0,0,0.1,0,0.1c0,0,0,0,0,0.1c0,0.1,0,0.1,0,0.2
	C8.1,4.7,7.8,5,7.4,5.2c-0.1,0-0.1,0-0.2,0.1c0,0,0,0-0.1,0c0,0-0.1,0-0.1,0c0,0,0,0-0.1,0c0,0-0.1,0-0.1,0c0,0,0,0-0.1,0
	c-0.1,0-0.1,0-0.2,0c0,0,0,0,0,0c0.2,0,0.3-0.1,0.5-0.2c0,0,0.1-0.1,0.1-0.1c0.2-0.2,0.3-0.5,0.3-0.8c0-0.3-0.2-0.6-0.4-0.8
	c0,0-0.1-0.1-0.1-0.1c0,0,0,0,0,0c0,0-0.1,0-0.1-0.1c0,0,0,0,0,0c0,0-0.1,0-0.1,0c0,0,0,0,0,0c-0.1,0-0.1,0-0.2,0c0,0,0,0,0,0
	C6.9,2.8,7.6,2.7,8.2,3 M6.7,3.9c-0.1,0-0.1,0-0.2,0c-0.1,0-0.2,0-0.4,0.1C6.1,4,6,4.1,5.9,4.3c-0.1-0.4,0-0.7,0.3-1c0,0,0,0,0,0
	c0,0,0,0,0.1,0c0,0,0,0,0,0c0,0,0,0,0.1,0c0,0,0,0,0,0c0.2,0,0.3,0.1,0.4,0.2c0,0,0.1,0,0.1,0.1c0.2,0.2,0.3,0.4,0.3,0.7
	c0,0,0,0.1,0,0.1c0,0,0,0,0,0c0,0,0,0,0,0.1c0,0,0,0,0,0c0,0,0,0,0,0.1c0,0,0,0,0,0c0,0,0,0,0,0c0-0.1,0-0.2-0.1-0.3
	C7.1,4.1,6.9,4,6.7,3.9 M5.9,5.3C5.9,5.3,6,5.4,6,5.4c0.1,0,0.1,0,0.2,0.1c0,0,0,0,0.1,0c0,0,0.1,0,0.1,0c0,0,0,0,0.1,0
	c0,0,0.1,0,0.1,0c0,0,0,0,0.1,0c0,0,0,0,0.1,0c0,0,0,0,0,0c0,0,0.1,0,0.1,0c0,0,0.1,0,0.1,0c0,0,0.1,0,0.1,0c0,0,0,0,0.1,0
	c0,0,0.1,0,0.1,0c0,0,0,0,0.1,0c0.1,0,0.1,0,0.2-0.1c0.4-0.2,0.8-0.6,0.9-1c0-0.1,0-0.1,0-0.2c0,0,0,0,0-0.1c0,0,0-0.1,0-0.1
	c0,0,0,0,0-0.1c0,0,0-0.1,0-0.1c0,0,0,0,0-0.1c0,0,0-0.1,0-0.1c0,0,0,0,0-0.1c0,0,0-0.1,0-0.1c0,0,0,0,0-0.1c0,0,0-0.1,0-0.1
	c0,0,0,0,0-0.1c0-0.1,0-0.1,0-0.2c0.9,0.5,1.4,1.6,1.3,2.6c0,0-0.1,0.1-0.1,0.1c0,0-0.1,0.1-0.1,0.1C9.4,6,9.4,6,9.3,6
	c0,0-0.1,0-0.1,0.1c0,0-0.1,0.1-0.1,0.1c0,0-0.1,0-0.1,0.1c0,0-0.1,0-0.1,0.1c0,0-0.1,0-0.1,0c0,0-0.1,0-0.2,0.1c0,0-0.1,0-0.1,0
	c-0.1,0-0.1,0-0.2,0c0,0-0.1,0-0.1,0c-0.1,0-0.1,0-0.2,0c0,0-0.1,0-0.1,0c-0.1,0-0.2,0-0.3,0c-0.1,0-0.2,0-0.3,0c0,0-0.1,0-0.1,0
	c-0.1,0-0.1,0-0.2,0c0,0-0.1,0-0.1,0c-0.1,0-0.1,0-0.2,0c0,0-0.1,0-0.1,0c-0.1,0-0.1,0-0.2-0.1c0,0,0,0-0.1,0
	c-0.1,0-0.1-0.1-0.2-0.1c0,0,0,0,0,0c-0.1,0-0.1-0.1-0.2-0.1c0,0,0,0-0.1,0C6.1,6,6.1,6,6,6c0,0,0,0-0.1-0.1c0,0-0.1-0.1-0.1-0.1
	c0,0,0,0-0.1-0.1c0,0-0.1-0.1-0.1-0.1c0,0,0,0,0-0.1C5.6,5.5,5.5,5.4,5.5,5.4c0,0,0,0,0,0c0-0.1-0.1-0.1-0.1-0.2c0,0,0,0,0-0.1
	c0,0,0-0.1-0.1-0.1c0,0,0-0.1,0-0.1c0,0,0-0.1-0.1-0.1c0,0,0-0.1,0-0.1c0,0,0,0,0,0C5.3,4.9,5.5,5.1,5.9,5.3 M5.2,9.7
	c-2.4,0-4.4-2-4.4-4.4c0-2.4,2-4.4,4.4-4.4c0.6,0,1.1,0.1,1.6,0.3C5.8,1.5,5,2.4,4.9,3.6c0,0.1,0,0.2,0,0.3c0,1.6,1.3,2.8,2.8,2.8
	c0.1,0,0.2,0,0.3,0c0,0,0.1,0,0.1,0c0.1,0,0.1,0,0.2,0c0,0,0.1,0,0.1,0c0.1,0,0.1,0,0.2,0c0,0,0.1,0,0.1,0c0,0,0.1,0,0.1-0.1
	c0,0,0.1,0,0.1,0c0,0,0.1,0,0.1-0.1c0,0,0.1,0,0.1-0.1c0,0,0.1,0,0.1-0.1c0,0,0.1,0,0.1-0.1c0,0,0.1-0.1,0.1-0.1
	c0,0,0.1-0.1,0.1-0.1c0,0,0.1,0,0.1-0.1C9.3,8.1,7.4,9.7,5.2,9.7"/>
</svg>
