<?xml version="1.0" encoding="utf-8"?>
<!-- Generator: Adobe Illustrator 22.0.0, SVG Export Plug-In . SVG Version: 6.00 Build 0)  -->
<svg version="1.1" id="Layer_1" xmlns="http://www.w3.org/2000/svg" xmlns:xlink="http://www.w3.org/1999/xlink" x="0px" y="0px"
	 viewBox="0 0 59.4 59.6" style="enable-background:new 0 0 59.4 59.6;" xml:space="preserve">
<style type="text/css">
	.st0{fill:#F9E0AF;}
	.st1{fill:#00BEEA;}
	.st2{fill:#00AFD8;}
	.st3{fill:#008BB4;}
	.st4{fill:#FFFFFF;}
</style>
<g>
	<path class="st0" d="M41.7,28c2.4-2.8,2.1-7.1-0.8-9.5c-1.4-1.2-3.2-1.7-5-1.6c-2.2,1.9-3,5-1.9,7.7c0.3-1,1-2,2-2.6
		c2-1.1,4.5-0.4,5.7,1.6c1,1.7,0.6,3.8-0.8,5.1C41.2,28.5,41.5,28.3,41.7,28"/>
	<path class="st1" d="M48.6,15.4c-4.1-2.3-9.2-1.7-12.7,1.5h0c1.7-0.2,3.5,0.3,5,1.6c2.8,2.4,3.2,6.6,0.8,9.5
		c-0.2,0.3-0.5,0.5-0.7,0.7c-2,1.7-4.8,2.1-7.1,1c0.4,0.2,0.8,0.4,1.2,0.5c5.6,2.1,11.9-0.8,14-6.5C50.1,21,49.8,18,48.6,15.4"/>
	<path class="st2" d="M48.6,15.4L48.6,15.4c1.2,2.6,1.4,5.6,0.4,8.4c-2.1,5.6-8.3,8.5-14,6.5c-0.4-0.2-0.8-0.3-1.2-0.5
		c-4-2-6.2-6.3-5.8-10.6c-0.1,0.6-0.1,1.2-0.1,1.8c0,9.7,7.9,17.6,17.6,17.6c4.9,0,9.4-2,12.6-5.3c0,0.3-0.1,0.5-0.1,0.8
		C59.2,26.5,55.5,18.9,48.6,15.4"/>
	<path class="st3" d="M45.5,38.5c-9.7,0-17.6-7.9-17.6-17.6c0-0.6,0-1.2,0.1-1.8c0.8-7.5,6.3-13.6,13.5-15.3
		C37.9,2.2,34,1.4,29.8,1.4C14.1,1.4,1.4,14.1,1.4,29.8c0,15.7,12.7,28.5,28.5,28.5C44.1,58.3,56,47.7,58,34c0-0.3,0.1-0.5,0.1-0.8
		C54.9,36.5,50.4,38.5,45.5,38.5"/>
</g>
</svg>
